<svg xmlns="http://www.w3.org/2000/svg" version="1.1" xmlns:xlink="http://www.w3.org/1999/xlink" xmlns:svgjs="http://svgjs.dev/svgjs" width="1500" height="1500" viewBox="0 0 1500 1500"><rect width="1500" height="1500" fill="#ffffff"></rect><g transform="matrix(0.6666666666666666,0,0,0.6666666666666666,249.39393939541486,689.8845832791186)"><svg viewBox="0 0 396 48" data-background-color="#ffffff" preserveAspectRatio="xMidYMid meet" height="181" width="1500" xmlns="http://www.w3.org/2000/svg" xmlns:xlink="http://www.w3.org/1999/xlink"><g id="tight-bounds" transform="matrix(1,0,0,1,0.2399999994157156,-0.08668506130686637)"><svg viewBox="0 0 395.52 48.17337012261374" height="48.17337012261374" width="395.52"><g><svg viewBox="0 0 463.4564161106888 56.44785970115366" height="48.17337012261374" width="395.52"><g><rect width="3.6834488003192827" height="41.04927568716311" x="46.10571432031483" y="7.699292006995275" fill="#336a86" opacity="1" stroke-width="0" stroke="transparent" fill-opacity="1" class="rect-qz-0" data-fill-palette-color="primary" rx="1%" id="qz-0" data-palette-color="#336a86"></rect></g><g><rect width="3.6834488003192827" height="41.04927568716311" x="54.61043118387924" y="7.699292006995275" fill="#336a86" opacity="1" stroke-width="0" stroke="transparent" fill-opacity="1" class="rect-qz-1" data-fill-palette-color="primary" rx="1%" id="qz-1" data-palette-color="#336a86"></rect></g><g transform="matrix(1,0,0,1,67.9364161106888,7.801404633082743)"><svg viewBox="0 0 395.52 40.845050434988174" height="40.845050434988174" width="395.52"><g id="textblocktransform"><svg viewBox="0 0 395.52 40.845050434988174" height="40.845050434988174" width="395.52" id="textblock"><g><svg viewBox="0 0 395.52 40.845050434988174" height="40.845050434988174" width="395.52"><g transform="matrix(1,0,0,1,0,0)"><svg width="395.52" viewBox="3.25 -36.25 450.755555553995 46.554253402765" height="40.845050434988174" data-palette-color="#336a86"><path d="M33.6-2.2L33.6-2.2Q33.55-3.1 33.48-3.88 33.4-4.65 33.38-5.03 33.35-5.4 33.33-5.68 33.3-5.95 33.3-6.3L33.3-6.3 33.3-9.15Q33.3-9.95 33.38-11.98 33.45-14 33.43-15.4 33.4-16.8 33.15-18.05L33.15-18.05Q32.85-19.8 32.1-20.58 31.35-21.35 29.8-21.35L29.8-21.35Q26.35-21.3 22.9-17.15L22.9-17.15Q23.05-15.65 23.05-11.35L23.05-11.35Q23.05-8.2 23.2-2.55L23.2-2.55Q23.25-1.55 22.53-0.8 21.8-0.05 20.78 0 19.75 0.05 19-0.68 18.25-1.4 18.2-2.45L18.2-2.45Q18.05-8.1 18.05-11.35L18.05-11.35 18.05-13.85Q18.05-14.1 18.03-14.9 18-15.7 17.98-16.07 17.95-16.45 17.88-17.07 17.8-17.7 17.73-18.18 17.65-18.65 17.5-19.1L17.5-19.1Q17.1-20.5 16.4-21.05L16.4-21.05Q15.65-21.65 14.15-21.5L14.15-21.5Q12.5-21.35 11.3-20.6L11.3-20.6Q10.15-19.85 8.95-18.2L8.95-18.2Q8.7-17.9 8.4-17.65L8.4-17.65Q8.6-7.65 8.4-2.4L8.4-2.4Q8.35-1.35 7.6-0.65 6.85 0.05 5.8 0 4.75-0.05 4.05-0.8 3.35-1.55 3.4-2.6L3.4-2.6Q3.5-8.15 3.5-9.73 3.5-11.3 3.38-16.98 3.25-22.65 3.25-24.25L3.25-24.25Q3.25-25 3.98-25.75 4.7-26.5 5.7-26.5 6.7-26.5 7.5-25.88 8.3-25.25 8.25-23.55L8.25-23.55Q10.5-26.2 13.75-26.5L13.75-26.5Q17.2-26.8 19.5-24.95L19.5-24.95Q20.7-24 21.65-22.3L21.65-22.3Q24.75-26.2 29.8-26.5L29.8-26.5Q33.5-26.55 35.75-24.2L35.75-24.2Q37.5-22.15 38.1-18.95L38.1-18.95Q38.35-17.45 38.4-15.68 38.45-13.9 38.38-11.68 38.3-9.45 38.3-9.15L38.3-9.15 38.3-6.4Q38.3-6.15 38.33-5.9 38.35-5.65 38.38-5.33 38.4-5 38.45-4.25 38.5-3.5 38.6-2.6L38.6-2.6Q38.65-1.55 37.98-0.78 37.3 0 36.27 0.08 35.25 0.15 34.48-0.53 33.7-1.2 33.6-2.2L33.6-2.2ZM44.65-2.4L44.65-2.4Q44.55-6.15 44.67-13.9 44.8-21.65 44.8-24.05L44.8-24.05Q44.8-25.1 45.52-25.83 46.25-26.55 47.3-26.55 48.35-26.55 49.07-25.83 49.8-25.1 49.8-24.05L49.8-24.05Q49.8-21.65 49.67-13.95 49.55-6.25 49.65-2.5L49.65-2.5Q49.65-1.45 48.95-0.7 48.25 0.05 47.2 0.05 46.15 0.05 45.4-0.65 44.65-1.35 44.65-2.4L44.65-2.4ZM49.3-35.2L49.3-35.2Q50.15-34.35 50.15-33.1 50.15-31.85 49.3-31 48.45-30.15 47.2-30.15 45.95-30.15 45.1-31 44.25-31.85 44.25-33.1 44.25-34.35 45.1-35.2 45.95-36.05 47.22-36.08 48.5-36.1 49.3-35.2L49.3-35.2ZM58.95 0L58.95 0Q57.95 0 57.2-0.68 56.45-1.35 56.45-2.5L56.45-2.5 56.35-12.7Q56.3-16.15 56.3-21.3L56.3-21.3 56.3-24.25Q56.3-25.4 57-26.05 57.7-26.7 58.7-26.7L58.7-26.7Q59.75-26.7 60.52-26.03 61.3-25.35 61.3-24.15L61.3-24.15 61.3-22.65Q61.85-23.85 63.35-24.7L63.35-24.7Q65.4-25.95 67.85-25.95L67.85-25.95Q69.7-25.95 70.7-25.35 71.7-24.75 71.7-23.2L71.7-23.2Q71.7-22.2 71.1-21.53 70.5-20.85 69.35-20.85L69.35-20.85Q65.15-20.85 63.55-19.7L63.55-19.7Q62.65-19.1 61.97-18.25 61.3-17.4 61.3-16.6L61.3-16.6 61.4-10.35 61.45-2.5Q61.45-1.35 60.7-0.68 59.95 0 58.95 0L58.95 0ZM87.24-0.8L87.24-0.8Q85.44-0.1 83.17 0 80.89 0.1 78.94-0.53 76.99-1.15 75.49-2.45L75.49-2.45Q72.89-4.6 72.14-7.8 71.39-11 72.09-13.55 72.79-16.1 74.22-18.53 75.64-20.95 77.32-22.63 78.99-24.3 81.19-25.45 83.39-26.6 85.79-26.58 88.19-26.55 90.84-25.25L90.84-25.25Q91.24-25.05 91.72-24.65 92.19-24.25 92.54-23.95L92.54-23.95 93.19-23.3Q93.49-23 93.49-22.95L93.49-22.95Q94.29-22.25 94.34-21.15L94.34-21.15Q94.99-18.15 95.19-14.85 95.39-11.55 95.32-8.65 95.24-5.75 95.39-2.5L95.39-2.5Q95.44-1.5 94.74-0.75 94.04 0 92.99 0.05 91.94 0.1 91.19-0.6 90.44-1.3 90.39-2.3L90.39-2.3 90.39-3.05Q88.89-1.5 87.24-0.8L87.24-0.8ZM84.99-5.3L84.99-5.3Q85.74-5.5 86.19-5.7 86.64-5.9 87.32-6.3 87.99-6.7 88.74-7.3 89.49-7.9 90.09-8.8L90.09-8.8Q90.19-8.9 90.34-9L90.34-9Q90.34-15.75 89.49-19.85L89.49-19.85Q89.34-20.05 89.17-20.23 88.99-20.4 88.92-20.5 88.84-20.6 88.72-20.68 88.59-20.75 88.44-20.85L88.44-20.85Q86.04-22.15 83.39-20.93 80.74-19.7 78.74-16.35L78.74-16.35Q76.74-12.95 76.77-10.43 76.79-7.9 78.69-6.25L78.69-6.25Q79.84-5.3 81.54-5.05 83.24-4.8 84.99-5.3L84.99-5.3ZM113.39 0.1L113.39 0.1Q110.54 0.15 107.82-0.9 105.09-1.95 103.34-3.95L103.34-3.95Q101.54-6.05 100.97-8.97 100.39-11.9 100.92-14.55 101.44-17.2 102.69-19.65L102.69-19.65Q103.69-21.5 105.09-22.98 106.49-24.45 108.37-25.48 110.24-26.5 112.37-26.58 114.49-26.65 116.94-25.65L116.94-25.65Q118.24-25.05 119.59-23.75L119.59-23.75 121.19-22.15Q121.99-21.5 122.09-20.45 122.19-19.4 121.52-18.63 120.84-17.85 119.79-17.75 118.74-17.65 117.99-18.35L117.99-18.35Q117.54-18.7 116.94-19.3L116.94-19.3 116.09-20.15Q115.39-20.85 114.94-21.05L114.94-21.05Q112.69-22.05 110.64-21.03 108.59-20 107.14-17.3L107.14-17.3Q105.64-14.5 105.67-11.7 105.69-8.9 107.14-7.25L107.14-7.25Q108.04-6.2 109.74-5.55 111.44-4.9 113.34-4.9L113.34-4.9Q117.19-5 118.29-7.65L118.29-7.65 118.24-7.9 118.24-9.35Q118.29-10.4 119.07-11.08 119.84-11.75 120.89-11.7 121.94-11.65 122.62-10.88 123.29-10.1 123.24-9.05L123.24-9.05 123.24-7.95Q123.29-6.7 122.89-5.75L122.89-5.75Q121.74-2.85 119.12-1.4 116.49 0.05 113.39 0.1L113.39 0.1ZM132.99-2.4L132.99-2.4Q132.94-1.35 132.19-0.65 131.44 0.05 130.39 0 129.34-0.05 128.64-0.8 127.94-1.55 127.99-2.6L127.99-2.6Q128.19-9.25 128.19-12.7 128.19-16.15 128.09-23 127.99-29.85 127.99-33.3L127.99-33.3Q127.99-34.35 128.71-35.08 129.44-35.8 130.49-35.8 131.54-35.8 132.26-35.08 132.99-34.35 132.99-33.3L132.99-33.3Q132.99-29.85 133.09-23.5 133.19-17.15 133.16-11.98 133.14-6.8 132.99-2.4L132.99-2.4ZM151.39 0.25L151.39 0.25Q147.69 0 144.94-1.25 142.19-2.5 140.74-4.4 139.29-6.3 138.64-7.9 137.99-9.5 137.84-11.08 137.69-12.65 137.99-15.15L137.99-15.15Q138.34-17.25 139.46-19.3 140.59-21.35 142.46-22.98 144.34-24.6 146.99-25.48 149.64-26.35 152.64-26L152.64-26Q155.54-25.65 157.59-24.43 159.64-23.2 161.09-21.3L161.09-21.3Q162.34-19.7 162.61-18.9 162.89-18.1 163.11-17.4 163.34-16.7 163.49-16.2 163.64-15.7 163.76-15.18 163.89-14.65 163.94-13.95L163.94-13.95Q163.99-13 163.59-12.2 163.19-11.4 162.39-10.95L162.39-10.95Q161.74-10.7 160.99-10.7L160.99-10.7 152.44-10.55Q143.44-10.5 143.44-10.35L143.44-10.35 143.29-10.35Q143.94-7.8 146.01-6.35 148.09-4.9 151.69-4.65L151.69-4.65Q153.64-4.55 154.94-4.85L154.94-4.85Q156.39-5.25 157.04-5.58 157.69-5.9 158.64-6.45L158.64-6.45Q159.59-6.8 160.54-6.35 161.49-5.9 161.84-4.95 162.19-4 161.76-3.1 161.34-2.2 160.44-1.7L160.44-1.7Q159.64-1.25 158.79-0.93 157.94-0.6 156.29-0.15 154.64 0.3 151.39 0.25L151.39 0.25ZM143.39-15.25L143.39-15.25Q146.29-15.4 158.44-15.55L158.44-15.55Q157.99-17.05 156.99-18.4L156.99-18.4Q154.99-20.7 152.04-21.05L152.04-21.05Q148.94-21.45 146.59-19.73 144.24-18 143.39-15.25L143.39-15.25ZM195.78-0.35L195.78-0.35Q189.18 1.25 185.23-3L185.23-3Q182.08-6.25 181.33-11.35L181.33-11.35Q180.78-15.35 182.28-18.95L182.28-18.95Q184.08-23.55 187.98-25.75L187.98-25.75Q188.78-26.2 189.98-26.4L189.98-26.4Q190.03-26.4 190.68-26.45L190.68-26.45Q190.93-26.5 191.08-26.55L191.08-26.55Q191.83-26.7 192.58-26.4L192.58-26.4Q192.78-26.4 193.53-26.38 194.28-26.35 194.53-26.33 194.78-26.3 195.41-26.23 196.03-26.15 196.43-26.05L196.43-26.05 197.38-25.7Q197.98-25.5 198.53-25.2 199.08-24.9 199.73-24.5L199.73-24.5Q202.98-22.3 204.23-18.32 205.48-14.35 204.88-11.9L204.88-11.9Q204.43-9.2 203.28-6.88 202.13-4.55 200.11-2.75 198.08-0.95 195.78-0.35L195.78-0.35ZM194.23-5.55L194.23-5.55Q196.38-5.85 197.91-7.78 199.43-9.7 199.91-11.85 200.38-14 199.56-16.57 198.73-19.15 196.93-20.3L196.93-20.3Q196.38-20.7 196.03-20.88 195.68-21.05 195.21-21.18 194.73-21.3 194.46-21.3 194.18-21.3 193.28-21.35 192.38-21.4 191.68-21.45L191.68-21.45Q191.53-21.45 191.33-21.5L191.33-21.5Q190.78-21.45 190.73-21.45L190.73-21.45 190.38-21.35Q188.18-20.15 187.01-17.53 185.83-14.9 186.33-12.1L186.33-12.1Q186.88-8.7 188.78-6.95L188.78-6.95Q190.83-5.05 194.23-5.55L194.23-5.55ZM213.78 0L213.78 0Q212.88 0 212.23-0.55 211.58-1.1 211.48-2.15L211.48-2.15Q210.68-8.7 210.58-17.15L210.58-17.15 210.53-20.9 210.13-20.9Q208.88-20.9 208.2-21.63 207.53-22.35 207.53-23.45L207.53-23.45Q207.53-24.45 208.13-25.23 208.73-26 209.83-26L209.83-26 210.73-26Q210.73-28.95 211.6-31.68 212.48-34.4 214.18-35.35L214.18-35.35Q215.88-36.25 217.38-36.25L217.38-36.25Q219.48-36.25 220.73-35.5 221.98-34.75 221.98-33.35L221.98-33.35Q221.98-32.2 221.43-31.5 220.88-30.8 219.88-30.8L219.88-30.8Q219.58-30.8 219.3-30.85 219.03-30.9 218.78-30.95L218.78-30.95Q218.08-31.15 217.33-31.15L217.33-31.15Q216.48-31.15 216.18-29.78 215.88-28.4 215.73-26L215.73-26 217.88-26Q219.03-26 219.7-25.25 220.38-24.5 220.38-23.5L220.38-23.5Q220.38-22.5 219.7-21.75 219.03-21 217.88-21L217.88-21 215.53-21 215.58-17.2Q216.03-6.1 216.38-3.05L216.38-3.05Q216.53-1.4 215.73-0.7 214.93 0 213.78 0L213.78 0ZM242.72 0L242.72 0Q241.82 0 241.17-0.55 240.52-1.1 240.42-2.15L240.42-2.15Q239.62-8.7 239.52-17.15L239.52-17.15 239.47-20.9 239.07-20.9Q237.82-20.9 237.15-21.63 236.47-22.35 236.47-23.45L236.47-23.45Q236.47-24.45 237.07-25.23 237.67-26 238.77-26L238.77-26 239.67-26Q239.67-28.95 240.55-31.68 241.42-34.4 243.12-35.35L243.12-35.35Q244.82-36.25 246.32-36.25L246.32-36.25Q248.42-36.25 249.67-35.5 250.92-34.75 250.92-33.35L250.92-33.35Q250.92-32.2 250.37-31.5 249.82-30.8 248.82-30.8L248.82-30.8Q248.52-30.8 248.25-30.85 247.97-30.9 247.72-30.95L247.72-30.95Q247.02-31.15 246.27-31.15L246.27-31.15Q245.42-31.15 245.12-29.78 244.82-28.4 244.67-26L244.67-26 246.82-26Q247.97-26 248.65-25.25 249.32-24.5 249.32-23.5L249.32-23.5Q249.32-22.5 248.65-21.75 247.97-21 246.82-21L246.82-21 244.47-21 244.52-17.2Q244.97-6.1 245.32-3.05L245.32-3.05Q245.47-1.4 244.67-0.7 243.87 0 242.72 0L242.72 0ZM257.42 0L257.42 0Q256.42 0 255.67-0.68 254.92-1.35 254.92-2.5L254.92-2.5 254.82-12.7Q254.77-16.15 254.77-21.3L254.77-21.3 254.77-24.25Q254.77-25.4 255.47-26.05 256.17-26.7 257.17-26.7L257.17-26.7Q258.22-26.7 259-26.03 259.77-25.35 259.77-24.15L259.77-24.15 259.77-22.65Q260.32-23.85 261.82-24.7L261.82-24.7Q263.87-25.95 266.32-25.95L266.32-25.95Q268.17-25.95 269.17-25.35 270.17-24.75 270.17-23.2L270.17-23.2Q270.17-22.2 269.57-21.53 268.97-20.85 267.82-20.85L267.82-20.85Q263.62-20.85 262.02-19.7L262.02-19.7Q261.12-19.1 260.45-18.25 259.77-17.4 259.77-16.6L259.77-16.6 259.87-10.35 259.92-2.5Q259.92-1.35 259.17-0.68 258.42 0 257.42 0L257.42 0ZM285.72-0.8L285.72-0.8Q283.92-0.1 281.64 0 279.37 0.1 277.42-0.53 275.47-1.15 273.97-2.45L273.97-2.45Q271.37-4.6 270.62-7.8 269.87-11 270.57-13.55 271.27-16.1 272.69-18.53 274.12-20.95 275.79-22.63 277.47-24.3 279.67-25.45 281.87-26.6 284.27-26.58 286.67-26.55 289.32-25.25L289.32-25.25Q289.72-25.05 290.19-24.65 290.67-24.25 291.02-23.95L291.02-23.95 291.67-23.3Q291.97-23 291.97-22.95L291.97-22.95Q292.77-22.25 292.82-21.15L292.82-21.15Q293.47-18.15 293.67-14.85 293.87-11.55 293.79-8.65 293.72-5.75 293.87-2.5L293.87-2.5Q293.92-1.5 293.22-0.75 292.52 0 291.47 0.05 290.42 0.1 289.67-0.6 288.92-1.3 288.87-2.3L288.87-2.3 288.87-3.05Q287.37-1.5 285.72-0.8L285.72-0.8ZM283.47-5.3L283.47-5.3Q284.22-5.5 284.67-5.7 285.12-5.9 285.79-6.3 286.47-6.7 287.22-7.3 287.97-7.9 288.57-8.8L288.57-8.8Q288.67-8.9 288.82-9L288.82-9Q288.82-15.75 287.97-19.85L287.97-19.85Q287.82-20.05 287.64-20.23 287.47-20.4 287.39-20.5 287.32-20.6 287.19-20.68 287.07-20.75 286.92-20.85L286.92-20.85Q284.52-22.15 281.87-20.93 279.22-19.7 277.22-16.35L277.22-16.35Q275.22-12.95 275.24-10.43 275.27-7.9 277.17-6.25L277.17-6.25Q278.32-5.3 280.02-5.05 281.72-4.8 283.47-5.3L283.47-5.3ZM311.47 10.25L311.47 10.25Q308.57 10.5 305.89 9.6 303.22 8.7 301.47 6.45L301.47 6.45Q300.82 5.6 300.39 4.35 299.97 3.1 300.47 2.18 300.97 1.25 301.94 0.95 302.92 0.65 303.84 1.15 304.77 1.65 305.07 2.6L305.07 2.6Q305.17 3 305.32 3.68 305.47 4.35 306.42 5L306.42 5Q308.67 5.8 311.37 5.7L311.37 5.7Q313.82 5.6 315.12 4.67 316.42 3.75 316.77 2.55L316.77 2.55Q317.27 0.85 317.57-2.85L317.57-2.85Q315.67-0.85 311.82-0.45L311.82-0.45Q308.52-0.3 305.89-1.38 303.27-2.45 301.74-4.45 300.22-6.45 299.52-8.9L299.52-8.9Q298.82-11.25 299.02-14.8L299.02-14.8Q299.42-20.3 303.32-23.65L303.32-23.65Q307.67-27.1 313.82-26.1L313.82-26.1Q316.07-25.35 317.37-24.3L317.37-24.3Q317.42-26.3 319.27-26.75L319.27-26.75Q320.47-26.85 321.19-26.2 321.92-25.55 322.07-24.55L322.07-24.55Q322.62-18.45 322.72-9.65L322.72-9.65Q322.77-4.65 322.42-1.3L322.42-1.3Q322.02 3.7 320.07 6.18 318.12 8.65 316.17 9.33 314.22 10 311.47 10.25L311.47 10.25ZM311.47-5.55L311.47-5.55Q313.32-5.5 314.32-6L314.32-6Q317.22-6.9 317.67-10.75L317.67-10.75Q317.92-13.7 317.42-16.4L317.42-16.4Q317.07-18.1 315.37-19.35L315.37-19.35Q314.37-20.15 312.82-20.4L312.82-20.4Q308.82-21.1 306.67-19.2L306.67-19.2Q304.62-17.55 304.32-14.35L304.32-14.35Q304.07-10.15 305.97-7.8L305.97-7.8Q307.92-5.5 311.47-5.55L311.47-5.55ZM331.61 0L331.61 0Q330.61 0 329.86-0.68 329.11-1.35 329.11-2.5L329.11-2.5 329.01-12.7Q328.96-16.15 328.96-21.3L328.96-21.3 328.96-24.25Q328.96-25.4 329.66-26.05 330.36-26.7 331.36-26.7L331.36-26.7Q332.41-26.7 333.19-26.03 333.96-25.35 333.96-24.15L333.96-24.15 333.96-22.65Q334.51-23.85 336.01-24.7L336.01-24.7Q338.06-25.95 340.51-25.95L340.51-25.95Q342.36-25.95 343.36-25.35 344.36-24.75 344.36-23.2L344.36-23.2Q344.36-22.2 343.76-21.53 343.16-20.85 342.01-20.85L342.01-20.85Q337.81-20.85 336.21-19.7L336.21-19.7Q335.31-19.1 334.64-18.25 333.96-17.4 333.96-16.6L333.96-16.6 334.06-10.35 334.11-2.5Q334.11-1.35 333.36-0.68 332.61 0 331.61 0L331.61 0ZM359.91-0.8L359.91-0.8Q358.11-0.1 355.84 0 353.56 0.1 351.61-0.53 349.66-1.15 348.16-2.45L348.16-2.45Q345.56-4.6 344.81-7.8 344.06-11 344.76-13.55 345.46-16.1 346.89-18.53 348.31-20.95 349.99-22.63 351.66-24.3 353.86-25.45 356.06-26.6 358.46-26.58 360.86-26.55 363.51-25.25L363.51-25.25Q363.91-25.05 364.39-24.65 364.86-24.25 365.21-23.95L365.21-23.95 365.86-23.3Q366.16-23 366.16-22.95L366.16-22.95Q366.96-22.25 367.01-21.15L367.01-21.15Q367.66-18.15 367.86-14.85 368.06-11.55 367.99-8.65 367.91-5.75 368.06-2.5L368.06-2.5Q368.11-1.5 367.41-0.75 366.71 0 365.66 0.05 364.61 0.1 363.86-0.6 363.11-1.3 363.06-2.3L363.06-2.3 363.06-3.05Q361.56-1.5 359.91-0.8L359.91-0.8ZM357.66-5.3L357.66-5.3Q358.41-5.5 358.86-5.7 359.31-5.9 359.99-6.3 360.66-6.7 361.41-7.3 362.16-7.9 362.76-8.8L362.76-8.8Q362.86-8.9 363.01-9L363.01-9Q363.01-15.75 362.16-19.85L362.16-19.85Q362.01-20.05 361.84-20.23 361.66-20.4 361.59-20.5 361.51-20.6 361.39-20.68 361.26-20.75 361.11-20.85L361.11-20.85Q358.71-22.15 356.06-20.93 353.41-19.7 351.41-16.35L351.41-16.35Q349.41-12.95 349.44-10.43 349.46-7.9 351.36-6.25L351.36-6.25Q352.51-5.3 354.21-5.05 355.91-4.8 357.66-5.3L357.66-5.3ZM376.96 0L376.96 0Q375.96 0 375.21-0.68 374.46-1.35 374.46-2.5L374.46-2.5Q374.46-6.45 374.41-9.3L374.41-9.3Q374.31-17.8 374.31-24.05L374.31-24.05Q374.31-25.2 375.01-25.85 375.71-26.5 376.71-26.5L376.71-26.5Q377.76-26.5 378.53-25.83 379.31-25.15 379.31-23.95L379.31-23.95 379.31-22.4Q382.41-26.45 387.46-26.45L387.46-26.45Q391.81-26.45 394.13-23.4 396.46-20.35 396.46-15.2L396.46-15.2Q396.46-9.5 396.31-7.7L396.31-7.7 396.06-4.35 395.91-2.2Q395.81-1.2 395.11-0.6 394.41 0 393.46 0L393.46 0Q392.46 0 391.71-0.68 390.96-1.35 390.96-2.5L390.96-2.5Q390.96-3.3 391.31-8.05L391.31-8.05Q391.56-11.3 391.56-13.15L391.56-13.15Q391.56-17.4 390.36-19.43 389.16-21.45 386.66-21.45L386.66-21.45Q384.86-21.45 382.93-20.35 381.01-19.25 379.31-17.55L379.31-17.55 379.41-10.45 379.46-2.5Q379.46-1.35 378.71-0.68 377.96 0 376.96 0L376.96 0ZM414.26 0.1L414.26 0.1Q411.41 0.15 408.68-0.9 405.96-1.95 404.21-3.95L404.21-3.95Q402.41-6.05 401.83-8.97 401.26-11.9 401.78-14.55 402.31-17.2 403.56-19.65L403.56-19.65Q404.56-21.5 405.96-22.98 407.36-24.45 409.23-25.48 411.11-26.5 413.23-26.58 415.36-26.65 417.81-25.65L417.81-25.65Q419.11-25.05 420.46-23.75L420.46-23.75 422.06-22.15Q422.86-21.5 422.96-20.45 423.06-19.4 422.38-18.63 421.71-17.85 420.66-17.75 419.61-17.65 418.86-18.35L418.86-18.35Q418.41-18.7 417.81-19.3L417.81-19.3 416.96-20.15Q416.26-20.85 415.81-21.05L415.81-21.05Q413.56-22.05 411.51-21.03 409.46-20 408.01-17.3L408.01-17.3Q406.51-14.5 406.53-11.7 406.56-8.9 408.01-7.25L408.01-7.25Q408.91-6.2 410.61-5.55 412.31-4.9 414.21-4.9L414.21-4.9Q418.06-5 419.16-7.65L419.16-7.65 419.11-7.9 419.11-9.35Q419.16-10.4 419.93-11.08 420.71-11.75 421.76-11.7 422.81-11.65 423.48-10.88 424.16-10.1 424.11-9.05L424.11-9.05 424.11-7.95Q424.16-6.7 423.76-5.75L423.76-5.75Q422.61-2.85 419.98-1.4 417.36 0.05 414.26 0.1L414.26 0.1ZM441.45 0.25L441.45 0.25Q437.75 0 435-1.25 432.25-2.5 430.8-4.4 429.35-6.3 428.7-7.9 428.05-9.5 427.9-11.08 427.75-12.65 428.05-15.15L428.05-15.15Q428.4-17.25 429.53-19.3 430.65-21.35 432.53-22.98 434.4-24.6 437.05-25.48 439.7-26.35 442.7-26L442.7-26Q445.6-25.65 447.65-24.43 449.7-23.2 451.15-21.3L451.15-21.3Q452.4-19.7 452.68-18.9 452.95-18.1 453.18-17.4 453.4-16.7 453.55-16.2 453.7-15.7 453.83-15.18 453.95-14.65 454-13.95L454-13.95Q454.05-13 453.65-12.2 453.25-11.4 452.45-10.95L452.45-10.95Q451.8-10.7 451.05-10.7L451.05-10.7 442.5-10.55Q433.5-10.5 433.5-10.35L433.5-10.35 433.35-10.35Q434-7.8 436.08-6.35 438.15-4.9 441.75-4.65L441.75-4.65Q443.7-4.55 445-4.85L445-4.85Q446.45-5.25 447.1-5.58 447.75-5.9 448.7-6.45L448.7-6.45Q449.65-6.8 450.6-6.35 451.55-5.9 451.9-4.95 452.25-4 451.83-3.1 451.4-2.2 450.5-1.7L450.5-1.7Q449.7-1.25 448.85-0.93 448-0.6 446.35-0.15 444.7 0.3 441.45 0.25L441.45 0.25ZM433.45-15.25L433.45-15.25Q436.35-15.4 448.5-15.55L448.5-15.55Q448.05-17.05 447.05-18.4L447.05-18.4Q445.05-20.7 442.1-21.05L442.1-21.05Q439-21.45 436.65-19.73 434.3-18 433.45-15.25L433.45-15.25Z" opacity="1" transform="matrix(1,0,0,1,0,0)" fill="#336a86" class="wordmark-text-0" data-fill-palette-color="primary" id="text-0"></path></svg></g></svg></g></svg></g></svg></g><g><svg viewBox="0 0 36.46317819382456 56.44785970115366" height="56.44785970115366" width="36.46317819382456"><g><svg xmlns="http://www.w3.org/2000/svg" xmlns:xlink="http://www.w3.org/1999/xlink" version="1.1" x="0" y="0" viewBox="21.312000000000012 5.59 57.375000000000014 88.82100000000001" enable-background="new 0 0 100 100" xml:space="preserve" height="56.44785970115366" width="36.46317819382456" class="icon-icon-0" data-fill-palette-color="accent" id="icon-0"><g fill="#283132" data-fill-palette-color="accent"><path fill="#283132" d="M44.559 19.422l-0.042 0.553c-0.28 0.039-1.399 0.201-2.343 0.484-0.695 0.209-1.198 0.59-1.38 1.047-0.121 0.301-0.093 0.621 0.079 0.925 0.156 0.272 0.335 0.655 0.499 1.032 0.44-0.281 1.312-0.585 3.206-0.775 0.9-0.092 1.744-0.127 2.236-0.141-0.116-0.34-0.182-0.703-0.182-1.083 0-1.86 1.507-3.368 3.367-3.368 1.859 0 3.368 1.508 3.368 3.368 0 0.379-0.066 0.741-0.182 1.082 1.27 0.029 4.234 0.18 5.437 0.926 0.166-0.38 0.346-0.767 0.504-1.041 0.172-0.304 0.2-0.624 0.079-0.925-0.182-0.457-0.685-0.838-1.38-1.047-0.944-0.283-2.062-0.445-2.344-0.484l-0.042-0.553h9.366l4.188-3.969V9.561l-3.561-3.945-0.025-0.026h-15.26-0.297H34.591l-3.585 3.972v5.893l4.188 3.969H44.559z" data-fill-palette-color="accent"></path><path fill="#283132" d="M75.102 30.479l-0.028-0.002c-0.123-0.01-12.288-1.025-17.136-1.142 0.01-0.116 0.017-0.312 0.027-0.649l0.137-3.938c0.02-0.048 0.089-0.231 0.19-0.481-0.381-0.363-2.285-0.858-5.526-0.883-0.608 0.875-1.619 1.448-2.766 1.448s-2.157-0.573-2.766-1.448c-3.242 0.024-5.146 0.52-5.526 0.883 0.101 0.25 0.172 0.434 0.19 0.481l0.137 3.938c0.011 0.337 0.018 0.533 0.027 0.649-4.848 0.116-17.013 1.132-17.136 1.142l-0.029 0.002-3.585 3.53 0.055 58.087v0.037l2.61 2.278h23.914 4.217 23.914l2.61-2.278 0.055-58.089v-0.035L75.102 30.479zM75.393 91.715c0 0-14.099-3.215-25.393-3.266-11.294 0.051-25.393 3.266-25.393 3.266V35.133l1.415-1.252h47.954l1.416 1.252V91.715z" data-fill-palette-color="accent"></path><rect x="33.623" y="42.049" fill="#283132" width="32.349" height="26.141" data-fill-palette-color="accent"></rect></g></svg></g></svg></g></svg></g><defs></defs></svg><rect width="395.52" height="48.17337012261374" fill="none" stroke="none" visibility="hidden"></rect></g></svg></g></svg>