<svg width="624" height="164" viewBox="0 0 624 164" fill="none" xmlns="http://www.w3.org/2000/svg">
<rect width="624" height="164" fill="white"/>
<path d="M178.686 38.7273V126H168.118V38.7273H178.686ZM210.676 126V38.7273H240.165C246.983 38.7273 252.579 39.892 256.954 42.2216C261.329 44.5227 264.568 47.6903 266.67 51.7244C268.773 55.7585 269.824 60.3466 269.824 65.4886C269.824 70.6307 268.773 75.1903 266.67 79.1676C264.568 83.1449 261.344 86.2699 256.997 88.5426C252.65 90.7869 247.096 91.9091 240.335 91.9091H216.471V82.3636H239.994C244.653 82.3636 248.403 81.6818 251.244 80.3182C254.113 78.9545 256.187 77.0227 257.466 74.5227C258.773 71.9943 259.426 68.983 259.426 65.4886C259.426 61.9943 258.773 58.9403 257.466 56.3267C256.159 53.7131 254.071 51.696 251.202 50.2756C248.332 48.8267 244.54 48.1023 239.824 48.1023H221.244V126H210.676ZM251.756 86.7955L273.233 126H260.96L239.824 86.7955H251.756ZM301.813 126H290.734L322.779 38.7273H333.688L365.734 126H354.654L328.575 52.5341H327.893L301.813 126ZM305.904 91.9091H350.563V101.284H305.904V91.9091ZM456.253 66H445.685C445.06 62.9602 443.966 60.2898 442.404 57.9886C440.87 55.6875 438.995 53.7557 436.779 52.1932C434.591 50.6023 432.162 49.4091 429.492 48.6136C426.821 47.8182 424.037 47.4205 421.14 47.4205C415.856 47.4205 411.069 48.7557 406.779 51.4261C402.517 54.0966 399.123 58.0312 396.594 63.2301C394.094 68.429 392.844 74.8068 392.844 82.3636C392.844 89.9205 394.094 96.2983 396.594 101.497C399.123 106.696 402.517 110.631 406.779 113.301C411.069 115.972 415.856 117.307 421.14 117.307C424.037 117.307 426.821 116.909 429.492 116.114C432.162 115.318 434.591 114.139 436.779 112.577C438.995 110.986 440.87 109.04 442.404 106.739C443.966 104.409 445.06 101.739 445.685 98.7273H456.253C455.458 103.187 454.009 107.179 451.907 110.702C449.804 114.224 447.191 117.222 444.066 119.693C440.941 122.136 437.432 123.997 433.54 125.276C429.677 126.554 425.543 127.193 421.14 127.193C413.696 127.193 407.077 125.375 401.282 121.739C395.486 118.102 390.927 112.932 387.603 106.227C384.279 99.5227 382.617 91.5682 382.617 82.3636C382.617 73.1591 384.279 65.2045 387.603 58.5C390.927 51.7955 395.486 46.625 401.282 42.9886C407.077 39.3523 413.696 37.5341 421.14 37.5341C425.543 37.5341 429.677 38.1733 433.54 39.4517C437.432 40.7301 440.941 42.6051 444.066 45.0767C447.191 47.5199 449.804 50.5028 451.907 54.0256C454.009 57.5199 455.458 61.5114 456.253 66ZM484.131 126V38.7273H494.699V116.625H535.267V126H484.131ZM562.431 126V38.7273H615.101V48.1023H572.999V77.5909H612.374V86.9659H572.999V116.625H615.783V126H562.431Z" fill="black"/>
<circle cx="80" cy="81" r="72" fill="url(#paint0_linear_1_2)"/>
<path d="M36.5682 38.7273H49.1818L78.8409 111.17H79.8636L109.523 38.7273H122.136V126H112.25V59.6932H111.398L84.125 126H74.5795L47.3068 59.6932H46.4545V126H36.5682V38.7273Z" fill="white"/>
<defs>
<linearGradient id="paint0_linear_1_2" x1="37" y1="32" x2="89" y2="95" gradientUnits="userSpaceOnUse">
<stop stop-color="#077408"/>
<stop offset="1"/>
</linearGradient>
</defs>
</svg>
