<svg width="800" height="230" viewBox="0 0 800 230" fill="none" xmlns="http://www.w3.org/2000/svg">
<rect width="800" height="230" fill="white"/>
<path d="M262.686 71.7273V159H252.118V71.7273H262.686ZM294.676 159V71.7273H324.165C330.983 71.7273 336.579 72.892 340.954 75.2216C345.329 77.5227 348.568 80.6903 350.67 84.7244C352.773 88.7585 353.824 93.3466 353.824 98.4886C353.824 103.631 352.773 108.19 350.67 112.168C348.568 116.145 345.344 119.27 340.997 121.543C336.65 123.787 331.096 124.909 324.335 124.909H300.471V115.364H323.994C328.653 115.364 332.403 114.682 335.244 113.318C338.113 111.955 340.187 110.023 341.466 107.523C342.773 104.994 343.426 101.983 343.426 98.4886C343.426 94.9943 342.773 91.9403 341.466 89.3267C340.159 86.7131 338.071 84.696 335.202 83.2756C332.332 81.8267 328.54 81.1023 323.824 81.1023H305.244V159H294.676ZM335.756 119.795L357.233 159H344.96L323.824 119.795H335.756ZM385.813 159H374.734L406.779 71.7273H417.688L449.734 159H438.654L412.575 85.5341H411.893L385.813 159ZM389.904 124.909H434.563V134.284H389.904V124.909ZM540.253 99H529.685C529.06 95.9602 527.966 93.2898 526.404 90.9886C524.87 88.6875 522.995 86.7557 520.779 85.1932C518.591 83.6023 516.162 82.4091 513.492 81.6136C510.821 80.8182 508.037 80.4205 505.14 80.4205C499.856 80.4205 495.069 81.7557 490.779 84.4261C486.517 87.0966 483.123 91.0312 480.594 96.2301C478.094 101.429 476.844 107.807 476.844 115.364C476.844 122.92 478.094 129.298 480.594 134.497C483.123 139.696 486.517 143.631 490.779 146.301C495.069 148.972 499.856 150.307 505.14 150.307C508.037 150.307 510.821 149.909 513.492 149.114C516.162 148.318 518.591 147.139 520.779 145.577C522.995 143.986 524.87 142.04 526.404 139.739C527.966 137.409 529.06 134.739 529.685 131.727H540.253C539.458 136.187 538.009 140.179 535.907 143.702C533.804 147.224 531.191 150.222 528.066 152.693C524.941 155.136 521.432 156.997 517.54 158.276C513.677 159.554 509.543 160.193 505.14 160.193C497.696 160.193 491.077 158.375 485.282 154.739C479.486 151.102 474.927 145.932 471.603 139.227C468.279 132.523 466.617 124.568 466.617 115.364C466.617 106.159 468.279 98.2045 471.603 91.5C474.927 84.7955 479.486 79.625 485.282 75.9886C491.077 72.3523 497.696 70.5341 505.14 70.5341C509.543 70.5341 513.677 71.1733 517.54 72.4517C521.432 73.7301 524.941 75.6051 528.066 78.0767C531.191 80.5199 533.804 83.5028 535.907 87.0256C538.009 90.5199 539.458 94.5114 540.253 99ZM568.131 159V71.7273H578.699V149.625H619.267V159H568.131ZM646.431 159V71.7273H699.101V81.1023H656.999V110.591H696.374V119.966H656.999V149.625H699.783V159H646.431Z" fill="black"/>
<circle cx="164" cy="115" r="72" fill="#077408"/>
<path d="M121.568 71.7273H134.182L163.841 144.17H164.864L194.523 71.7273H207.136V159H197.25V92.6932H196.398L169.125 159H159.58L132.307 92.6932H131.455V159H121.568V71.7273Z" fill="black"/>
</svg>
